<svg height="512pt" viewBox="0 -84 512 512" width="512pt" xmlns="http://www.w3.org/2000/svg"><path d="m192.359375 56.304688c35.09375-35.089844 92.1875-35.089844 127.28125 0 2.925781 2.929687 6.765625 4.394531 10.605469 4.394531 3.835937 0 7.675781-1.464844 10.605468-4.394531 5.859376-5.855469 5.859376-15.355469 0-21.214844-46.789062-46.785156-122.917968-46.785156-169.707031 0-5.855469 5.859375-5.855469 15.355468 0 21.214844 5.859375 5.855468 15.359375 5.855468 21.214844 0zm0 0"/><path d="m287.820312 103.125c3.835938 0 7.675782-1.464844 10.605469-4.394531 5.855469-5.855469 5.855469-15.355469 0-21.210938-11.332031-11.335937-26.398437-17.574219-42.425781-17.574219s-31.09375 6.238282-42.425781 17.574219c-5.859375 5.855469-5.859375 15.351563 0 21.210938 5.855469 5.859375 15.355469 5.855469 21.210937 0 5.667969-5.667969 13.199219-8.785157 21.214844-8.785157 8.011719 0 15.546875 3.117188 21.210938 8.785157 2.929687 2.929687 6.769531 4.394531 10.609374 4.394531zm0 0"/><path d="m432 29.945312c0-8.285156-6.714844-15-15-15s-15 6.714844-15 15v135h30zm0 0"/><path d="m110 29.945312c0-8.285156-6.714844-15-15-15s-15 6.714844-15 15v135h30zm0 0"/><path d="m467 194.945312h-422c-24.8125 0-45 20.183594-45 45v90c0 8.28125 6.714844 15 15 15h482c8.285156 0 15-6.71875 15-15v-90c0-24.816406-20.1875-45-45-45zm-271 90c-8.285156 0-15-6.71875-15-15 0-8.285156 6.714844-15 15-15s15 6.714844 15 15c0 8.28125-6.714844 15-15 15zm60 0c-8.285156 0-15-6.71875-15-15 0-8.285156 6.714844-15 15-15s15 6.714844 15 15c0 8.28125-6.714844 15-15 15zm60 0c-8.285156 0-15-6.71875-15-15 0-8.285156 6.714844-15 15-15s15 6.714844 15 15c0 8.28125-6.714844 15-15 15zm0 0"/><path d="m271 134.945312c0 8.28125-6.714844 15-15 15s-15-6.71875-15-15c0-8.285156 6.714844-15 15-15s15 6.714844 15 15zm0 0"/></svg>